# xmcd CD database file
#
# Track frame offsets:
#	150
#	30567
#	71787
#	77719
#	88317
#	93970
#	99602
#	136643
#
# Disc length: 2103 seconds
#
# Revision: 0
# Processed by: cddbd v1.4PL0 Copyright (c) Steve Scherf et al.
# Submitted via: CDex 1.50
#
DISCID=60083508
DTITLE=Al DiMeola - Land Of The Midnight Sun
DYEAR=1900
DGENRE=Jazz
TTITLE0=The  Wizard
TTITLE1=Land Of The Midnight Sun
TTITLE2=Sarabande From Violin Sonata In B Minor - Bach
TTITLE3=Love Theme From 'Pictures Of The Sea'
TTITLE4=Suite-Golden Dawn - a) Morning Fire
TTITLE5=Suite-Golden Dawn - b) Calmer Of The Tempests
TTITLE6=Suite-Golden Dawn - c) From Ocean To The Clouds
TTITLE7=Short Tales Of The Black Forest
EXTD=
EXTT0=
EXTT1=
EXTT2=
EXTT3=
EXTT4=
EXTT5=
EXTT6=
EXTT7=
PLAYORDER=
